<?xml version="1.0" standalone="no"?>
<!DOCTYPE svg PUBLIC "-//W3C//DTD SVG 20010904//EN"
 "http://www.w3.org/TR/2001/REC-SVG-20010904/DTD/svg10.dtd">
<svg version="1.0" xmlns="http://www.w3.org/2000/svg"
 width="128.000000pt" height="128.000000pt" viewBox="0 0 128.000000 128.000000"
 preserveAspectRatio="xMidYMid meet">

<g transform="translate(0.000000,128.000000) scale(0.100000,-0.100000)"
fill="#000000" stroke="none">
<path d="M270 1124 c0 -23 -8 -46 -24 -64 -14 -17 -29 -55 -37 -94 -8 -41 -18
-66 -26 -66 -19 0 -16 -18 5 -23 16 -4 16 -5 0 -6 -10 0 -18 -8 -18 -17 0 -10
6 -14 15 -10 8 3 15 1 15 -4 0 -6 -7 -10 -15 -10 -8 0 -15 -5 -15 -11 0 -6 6
-9 14 -6 14 6 26 -19 26 -56 0 -18 19 -68 41 -109 16 -31 10 -38 -36 -38 -26
0 -45 -5 -45 -11 0 -7 17 -10 45 -7 25 2 45 0 45 -4 0 -5 -20 -8 -45 -8 -60 0
-58 -18 3 -23 l47 -3 -47 -2 c-61 -2 -63 -22 -3 -22 25 0 45 -3 45 -8 0 -4
-20 -6 -45 -4 -28 3 -45 0 -45 -7 0 -6 21 -12 48 -13 l47 -1 -50 -7 -50 -6 49
-5 c44 -3 51 -7 57 -31 8 -31 -2 -37 -64 -40 -41 -1 -41 -1 -7 -5 38 -5 63
-20 54 -34 -3 -5 -2 -15 3 -21 4 -7 6 -37 4 -66 -3 -47 -1 -52 18 -52 18 0 21
6 21 44 0 61 25 66 94 21 71 -48 135 -65 243 -65 104 0 188 23 258 70 38 26
42 26 93 15 54 -13 78 -4 42 15 -23 12 -28 35 -5 26 8 -3 15 -1 15 4 0 8 -37
15 -62 11 -4 0 -5 6 -1 15 3 8 13 14 22 13 9 -1 25 0 36 1 16 1 15 3 -8 12
-15 5 -26 15 -23 21 2 7 10 38 17 70 11 49 16 57 36 57 13 0 23 5 23 10 0 6
-11 10 -24 10 -17 0 -26 7 -30 24 -9 37 1 54 30 48 14 -2 24 0 24 7 0 6 -11
11 -25 11 -24 0 -25 1 -11 23 8 12 20 53 27 91 24 142 -10 286 -68 286 -33 0
-116 -46 -209 -116 -71 -53 -88 -59 -131 -48 -22 6 -23 10 -23 130 0 81 -4
124 -11 124 -7 0 -9 -42 -7 -124 l3 -124 -35 -4 c-30 -4 -46 4 -115 55 -44 33
-105 72 -135 86 l-55 26 3 43 c2 25 -1 42 -7 42 -6 0 -11 -16 -11 -36z m25
-90 c13 -8 26 -23 30 -32 4 -10 -7 -5 -27 13 -18 17 -35 31 -37 33 -2 1 -1 2
3 2 4 0 17 -7 31 -16z m705 2 c0 -2 -12 -12 -27 -21 l-28 -18 19 21 c17 20 36
29 36 18z m-724 -27 c10 -11 14 -20 9 -19 -22 5 -27 -1 -14 -17 13 -15 12 -15
-9 -2 -12 8 -18 15 -13 17 5 2 7 12 4 22 -7 25 -1 25 23 -1z m737 -34 c-13
-10 -21 -11 -32 -2 -11 9 -8 16 15 36 l29 24 3 -22 c2 -13 -4 -28 -15 -36z
m30 -25 c3 -14 -1 -24 -15 -31 -15 -8 -19 -8 -14 0 4 6 0 11 -11 11 -15 0 -14
4 7 20 14 11 26 20 26 20 1 0 4 -9 7 -20z m-783 -15 c0 -7 -7 -15 -15 -19 -15
-5 -22 24 -9 37 9 9 24 -2 24 -18z m-10 -50 c11 -13 10 -14 -4 -9 -9 3 -16 10
-16 15 0 13 6 11 20 -6z m800 -10 c0 -14 -2 -25 -4 -25 -2 0 -11 -3 -20 -6 -9
-3 -16 -1 -16 5 0 6 5 10 12 9 6 -2 14 5 16 15 3 16 1 17 -20 7 -22 -11 -22
-10 -4 4 28 22 36 20 36 -9z m-796 -37 c7 -5 4 -8 -6 -8 -12 0 -18 7 -17 23 0
15 2 17 6 7 3 -8 11 -18 17 -22z m785 -30 c-9 -16 -14 -19 -17 -9 -2 7 2 17 9
22 20 13 21 11 8 -13z m-786 -7 c-4 -3 -11 -10 -15 -15 -5 -5 -8 0 -8 12 0 15
4 20 16 15 9 -3 12 -9 7 -12z m410 -1 c14 -11 40 -38 57 -60 l32 -40 -26 -52
c-63 -126 -14 -184 161 -194 53 -2 99 -6 101 -8 1 -2 -6 -18 -17 -36 -20 -33
-20 -33 -98 -33 l-78 0 74 -6 c63 -5 72 -8 58 -19 -15 -12 -55 -11 -111 5 -12
3 -16 1 -12 -6 4 -6 22 -11 39 -11 18 0 38 -4 45 -9 36 -22 -158 -91 -257 -91
-94 0 -231 51 -282 106 l-22 24 77 0 c52 0 75 3 71 11 -5 7 -32 8 -80 4 l-73
-7 -16 30 c-9 17 -16 33 -16 34 0 4 47 7 139 8 87 2 161 49 161 104 0 36 -30
105 -53 125 -10 7 -17 19 -17 26 0 18 89 115 105 115 7 0 24 -9 38 -20z m373
-47 c-10 -10 -19 5 -10 18 6 11 8 11 12 0 2 -7 1 -15 -2 -18z m-522 -72 c16
-14 35 -40 42 -58 39 -90 -4 -153 -103 -153 -51 0 -58 3 -94 39 -31 31 -39 46
-39 75 0 66 42 119 101 128 37 6 61 -2 93 -31z m412 -5 c26 -26 34 -42 34 -71
0 -119 -128 -176 -220 -98 -74 61 1 203 107 203 38 0 50 -5 79 -34z m-631
-286 c3 -5 1 -10 -4 -10 -6 0 -11 5 -11 10 0 6 2 10 4 10 3 0 8 -4 11 -10z
m-5 -46 c0 -8 -4 -12 -10 -9 -5 3 -10 10 -10 16 0 5 5 9 10 9 6 0 10 -7 10
-16z m35 6 c3 -5 -1 -10 -9 -10 -9 0 -16 5 -16 10 0 6 4 10 9 10 6 0 13 -4 16
-10z m675 1 c0 -6 -4 -13 -10 -16 -5 -3 -10 -2 -10 4 0 6 -7 7 -17 4 -11 -4
-14 -3 -9 5 9 14 46 16 46 3z"/>
<path d="M990 995 c-8 -9 -8 -15 -2 -15 12 0 26 19 19 26 -2 2 -10 -2 -17 -11z"/>
<path d="M623 508 c2 -7 12 -13 22 -13 10 0 20 6 23 13 2 7 -6 12 -23 12 -17
0 -25 -5 -22 -12z"/>
<path d="M637 426 c-11 -27 -41 -36 -73 -20 l-29 14 24 -20 c29 -25 46 -25 70
-1 19 19 20 19 37 0 21 -23 44 -24 70 -3 18 15 18 15 -3 5 -32 -16 -41 -14
-67 14 -19 20 -25 22 -29 11z"/>
<path d="M860 410 l-65 -7 83 -1 c49 -1 82 2 82 8 0 6 -8 9 -17 8 -10 -1 -47
-4 -83 -8z"/>
<path d="M408 403 c12 -2 32 -2 45 0 12 2 2 4 -23 4 -25 0 -35 -2 -22 -4z"/>
<path d="M433 353 c9 -2 25 -2 35 0 9 3 1 5 -18 5 -19 0 -27 -2 -17 -5z"/>
<path d="M373 343 c9 -2 23 -2 30 0 6 3 -1 5 -18 5 -16 0 -22 -2 -12 -5z"/>
<path d="M440 663 c-63 -23 -82 -104 -34 -142 15 -12 40 -21 56 -21 37 0 78
43 78 81 0 48 -59 96 -100 82z"/>
<path d="M788 654 c-51 -27 -63 -84 -28 -122 53 -57 139 -23 140 56 0 30 -28
72 -49 72 -5 0 -15 2 -23 5 -7 2 -25 -2 -40 -11z"/>
<path d="M1000 1120 c0 -22 5 -40 10 -40 6 0 10 18 10 40 0 22 -4 40 -10 40
-5 0 -10 -18 -10 -40z"/>
<path d="M178 993 c7 -3 16 -2 19 1 4 3 -2 6 -13 5 -11 0 -14 -3 -6 -6z"/>
<path d="M170 920 c0 -5 5 -10 10 -10 6 0 10 5 10 10 0 6 -4 10 -10 10 -5 0
-10 -4 -10 -10z"/>
<path d="M183 663 c9 -2 25 -2 35 0 9 3 1 5 -18 5 -19 0 -27 -2 -17 -5z"/>
<path d="M1040 535 c0 -8 9 -15 20 -15 11 0 20 7 20 15 0 8 -9 15 -20 15 -11
0 -20 -7 -20 -15z"/>
<path d="M1030 490 c0 -5 11 -10 25 -10 14 0 25 5 25 10 0 6 -11 10 -25 10
-14 0 -25 -4 -25 -10z"/>
<path d="M840 245 c0 -8 5 -15 10 -15 6 0 10 7 10 15 0 8 -4 15 -10 15 -5 0
-10 -7 -10 -15z"/>
</g>
</svg>
